HIERARCHY
ROOT Hips
{
    OFFSET 0.000000 0.000000 0.000000
    CHANNELS 6 Xposition Yposition Zposition Zrotation Xrotation Yrotation
    JOINT Spine
    {
        OFFSET -0.000000 14.517291 0.000000
        CHANNELS 3 Zrotation Xrotation Yrotation
        JOINT Spine1
        {
            OFFSET -0.000000 37.558300 0.000000
            CHANNELS 3 Zrotation Xrotation Yrotation
            JOINT Neck
            {
                OFFSET -0.000000 37.404057 3.400369
                CHANNELS 3 Zrotation Xrotation Yrotation
                JOINT Head
                {
                    OFFSET -0.000000 24.785618 -3.540803
                    CHANNELS 3 Zrotation Xrotation Yrotation
                    End Site
                    {
                        OFFSET -0.000000 35.408028 0.000000
                    }
                }
            }
            JOINT LeftShoulder
            {
                OFFSET 6.992933 33.973492 -0.192664
                CHANNELS 3 Zrotation Xrotation Yrotation
                JOINT LeftArm
                {
                    OFFSET 21.527611 0.000000 0.000000
                    CHANNELS 3 Zrotation Xrotation Yrotation
                    JOINT LeftForeArm
                    {
                        OFFSET 56.353916 0.000000 0.000000
                        CHANNELS 3 Zrotation Xrotation Yrotation
                        JOINT LeftHand
                        {
                            OFFSET 47.774071 0.000000 0.000000
                            CHANNELS 3 Zrotation Xrotation Yrotation
                            End Site
                            {
                                OFFSET 26.556021 0.000000 0.000000
                            }
                        }
                    }
                }
            }
            JOINT RightShoulder
            {
                OFFSET -7.065357 33.973492 -0.192664
                CHANNELS 3 Zrotation Xrotation Yrotation
                JOINT RightArm
                {
                    OFFSET -21.527611 0.000000 0.000000
                    CHANNELS 3 Zrotation Xrotation Yrotation
                    JOINT RightForeArm
                    {
                        OFFSET -56.353916 0.000000 0.000000
                        CHANNELS 3 Zrotation Xrotation Yrotation
                        JOINT RightHand
                        {
                            OFFSET -47.774071 0.000000 0.000000
                            CHANNELS 3 Zrotation Xrotation Yrotation
                            End Site
                            {
                                OFFSET -26.556021 0.000000 0.000000
                            }
                        }
                    }
                }
            }
        }
    }
    JOINT LeftUpLeg
    {
        OFFSET 17.704014 0.000000 0.000000
        CHANNELS 3 Zrotation Xrotation Yrotation
        JOINT LeftLeg
        {
            OFFSET -0.000000 -81.181816 0.000000
            CHANNELS 3 Zrotation Xrotation Yrotation
            JOINT LeftFoot
            {
                OFFSET -0.000000 -62.821102 0.000000
                CHANNELS 3 Zrotation Xrotation Yrotation
                JOINT LeftToeBase
                {
                    OFFSET -0.000000 -11.507608 26.556021
                    CHANNELS 3 Zrotation Xrotation Yrotation
                    End Site
                    {
                        OFFSET -0.000000 0.000000 7.081605
                    }
                }
            }
        }
    }
    JOINT RightUpLeg
    {
        OFFSET -17.704014 0.000000 0.000000
        CHANNELS 3 Zrotation Xrotation Yrotation
        JOINT RightLeg
        {
            OFFSET -0.000000 -81.181816 0.000000
            CHANNELS 3 Zrotation Xrotation Yrotation
            JOINT RightFoot
            {
                OFFSET -0.000000 -62.821102 0.000000
                CHANNELS 3 Zrotation Xrotation Yrotation
                JOINT RightToeBase
                {
                    OFFSET -0.000000 -11.507608 26.556021
                    CHANNELS 3 Zrotation Xrotation Yrotation
                    End Site
                    {
                        OFFSET -0.000000 0.000000 7.081605
                    }
                }
            }
        }
    }
}
MOTION
Frames:    11
Frame Time:    0.008333
30.419466    145.262390    48.447720    4.718590    2.211976    -76.472954    -1.759543    1.455973    -11.792621    6.242795    -0.698539    -3.900516    18.631334    2.976434    12.164678    -15.751613    3.227484    8.576356    13.826869    4.253996    -21.109320    -3.442516    -4.512850    -15.689103    24.122496    3.120587    -36.231716    -74.565422    26.280613    -20.788031    -12.706266    -4.965388    -16.605375    26.139782    -26.197716    28.046160    10.392494    -27.252182    106.281708    23.289211    -32.961910    34.591640    38.345181    -20.073038    25.605282    -35.661137    45.041916    11.087918    -2.014624    -19.314003    48.119576    0.000000    0.000000    0.000000    -26.450188    -23.745831    1.085433    2.095075    32.429943    -2.941027    20.465561    -8.113441    1.761093    0.000000    0.000000    0.000000    
30.352901    145.231003    48.215714    4.623969    2.279471    -75.709053    -1.672000    1.601863    -11.795844    6.149745    -0.931018    -3.890019    18.899008    3.199356    12.201417    -16.164673    3.180746    8.565329    13.787484    4.347173    -20.921377    -3.406441    -4.510411    -15.777489    23.963612    2.960684    -36.400394    -73.793678    26.153885    -21.117025    -12.701891    -4.933317    -16.501780    26.204914    -26.195395    28.084517    10.426521    -27.162989    106.291237    23.303463    -32.923218    34.548248    38.386173    -20.340841    25.418612    -35.567429    44.939060    10.658786    -1.992122    -19.262728    48.045574    0.000000    0.000000    0.000000    -26.458136    -23.383156    0.882853    2.187648    32.736160    -3.031588    20.290579    -8.549156    1.652025    0.000000    0.000000    0.000000    
30.285299    145.200867    47.970844    4.530854    2.332214    -74.942566    -1.800103    1.461922    -11.581518    6.207375    -0.676965    -3.831757    18.900864    3.121274    12.129384    -16.106457    3.154628    8.479231    13.846339    4.221363    -21.139414    -3.412083    -4.483257    -15.739759    23.802746    2.675568    -36.524181    -73.005379    25.872046    -21.413139    -12.679415    -5.006841    -16.558363    26.116655    -26.221428    28.012375    10.486090    -27.172251    106.285126    23.023258    -33.089001    34.475471    38.427731    -20.621128    25.308369    -35.366787    44.893711    10.057009    -1.965410    -19.016912    47.926468    0.000000    0.000000    0.000000    -26.474596    -23.015471    0.679374    2.289873    33.033733    -3.177507    20.235983    -9.019354    1.490452    0.000000    0.000000    0.000000    
30.199993    145.164917    47.714100    4.409688    2.377423    -74.151886    -1.856714    1.493657    -11.473618    6.219479    -0.659920    -3.797061    18.831459    3.096103    12.102343    -15.977571    3.177984    8.473410    13.842581    4.183122    -21.127497    -3.381392    -4.584243    -15.806051    23.398104    2.426034    -36.710819    -72.133644    25.455132    -21.598776    -12.676687    -4.975084    -16.522766    26.159014    -26.249584    28.020954    10.487724    -27.216232    106.260742    23.093765    -33.100750    34.513992    38.472301    -20.880554    25.119778    -35.246758    44.792488    9.602036    -1.953373    -18.752840    47.754673    0.000000    0.000000    0.000000    -26.485605    -22.597635    0.424096    2.367261    33.318871    -3.307558    20.202896    -9.505694    1.356691    0.000000    0.000000    0.000000    
30.091513    145.129639    47.473412    4.266898    2.403773    -73.371002    -1.953200    1.542816    -11.373854    6.411770    -0.743105    -3.758701    18.484282    3.312446    12.004010    -15.759995    3.029424    8.455003    13.527061    4.260688    -21.251030    -3.206104    -4.620234    -15.715767    23.148724    2.462521    -36.753185    -71.198517    25.492737    -22.072706    -12.838795    -4.800536    -16.404224    26.286381    -26.364470    28.068300    10.726960    -27.172129    106.408287    23.203905    -33.319813    34.596581    38.495773    -21.101955    25.031813    -35.049149    44.752094    9.049338    -1.937984    -18.503866    47.577526    0.000000    0.000000    0.000000    -26.500847    -22.135677    0.150744    2.340158    33.538750    -3.246665    20.302412    -9.940121    1.271158    0.000000    0.000000    0.000000    
29.976925    145.100784    47.217136    4.143670    2.437828    -72.565590    -1.973860    1.552489    -11.258698    6.269799    -0.616226    -3.728393    18.573603    3.045105    12.024400    -15.632861    3.226547    8.461832    13.750606    4.131038    -21.041647    -3.308515    -4.794189    -15.990887    22.781387    2.354439    -36.964581    -70.358391    25.231028    -22.273958    -12.678181    -4.941302    -16.482592    26.242220    -26.192919    28.159515    10.668725    -27.418213    106.325569    23.398861    -33.390942    34.713768    38.522930    -21.358210    24.860201    -34.910828    44.658661    8.575198    -2.008032    -18.366282    47.502285    0.000000    0.000000    0.000000    -26.508749    -21.687174    -0.102890    2.431320    33.803757    -3.426105    20.263117    -10.434238    1.160951    0.000000    0.000000    0.000000    
29.850435    145.088196    47.010860    3.996354    2.461024    -71.748840    -1.982524    1.616115    -11.142367    6.342594    -0.749686    -3.682213    18.376509    3.224291    11.943622    -15.536734    3.186258    8.437532    13.437328    4.211530    -21.180073    -3.121538    -5.069676    -15.943892    22.198298    2.373111    -37.213440    -69.399841    24.923929    -22.379536    -12.761713    -4.824930    -16.350843    26.243607    -26.149681    28.098783    10.587124    -27.495008    106.374565    23.384274    -33.388054    34.695152    38.499233    -21.582766    24.677969    -34.737137    44.546284    8.199566    -1.895013    -17.903633    47.126987    0.000000    0.000000    0.000000    -26.539680    -21.183018    -0.409088    2.517975    34.023872    -3.574321    20.223541    -10.855596    1.078424    0.000000    0.000000    0.000000    
29.720533    145.077667    46.746655    3.881573    2.521450    -70.967766    -2.005268    1.571959    -11.000519    6.312305    -0.634539    -3.641352    18.306866    3.083056    11.948494    -15.372478    3.312398    8.463576    13.437216    4.153963    -21.100487    -3.083076    -5.179006    -16.074190    21.638754    2.097051    -37.302036    -68.330070    24.315914    -22.521221    -12.699998    -4.860376    -16.351124    26.278486    -26.262074    28.210575    10.635908    -27.375044    106.291756    23.216566    -33.378773    34.588509    38.550209    -21.821325    24.567844    -34.551567    44.433128    7.745862    -1.910646    -17.609022    46.890999    0.000000    0.000000    0.000000    -26.489601    -20.749647    -0.751595    2.517498    34.260941    -3.686457    20.202356    -11.279035    1.041761    0.000000    0.000000    0.000000    
29.575432    145.073944    46.485310    3.771800    2.593012    -70.187393    -2.007548    1.553584    -10.883040    6.286018    -0.631664    -3.602388    18.223551    3.059871    11.917416    -15.226487    3.401896    8.466149    13.466251    3.981603    -20.937428    -3.206088    -5.278319    -16.280565    21.374641    2.256240    -37.563354    -67.584770    24.465059    -22.890350    -12.695672    -4.888097    -16.234619    26.335630    -26.257210    28.220959    10.567616    -27.393129    106.231377    23.272760    -33.292660    34.570957    38.602489    -22.057903    24.501049    -34.312122    44.323864    7.287045    -1.972856    -17.350304    46.619480    0.000000    0.000000    0.000000    -26.431829    -20.323824    -1.096703    2.542276    34.506138    -3.772972    20.161106    -11.708211    0.967721    0.000000    0.000000    0.000000    
29.442818    145.083298    46.228931    3.685193    2.664946    -69.415901    -1.787489    1.371726    -10.882825    5.120877    -0.933139    -3.592986    19.936579    4.329726    11.857983    -16.133684    2.931626    8.251001    14.833715    4.680414    -21.287096    -3.603741    -5.672741    -16.191700    21.228355    2.091161    -37.746475    -66.924057    24.181629    -22.981525    -11.225330    -4.755010    -14.933849    25.326321    -26.514757    27.262341    10.557940    -27.542526    105.963799    23.486319    -33.243313    34.898689    38.642677    -22.302731    24.386435    -34.121861    44.148838    6.883887    -2.000524    -17.043417    46.353210    0.000000    0.000000    0.000000    -26.369875    -19.909891    -1.443282    2.566659    34.706322    -3.881299    20.185701    -12.150774    0.785164    0.000000    0.000000    0.000000    
29.286829    145.096710    45.986931    3.574145    2.733652    -68.638008    -2.025107    1.442417    -10.526297    6.276896    -0.600783    -3.484392    17.960812    3.010690    11.769176    -14.863773    3.585525    8.400702    13.410131    3.941260    -20.920424    -3.238968    -5.414595    -16.489592    20.947104    2.220154    -37.893383    -65.917725    24.303436    -23.521418    -12.650507    -4.822397    -16.091360    26.376999    -26.276993    28.275284    10.539397    -27.477949    106.221046    23.266706    -33.324486    34.650219    38.665051    -22.540098    24.286083    -33.872288    44.013142    6.441963    -2.044575    -16.755028    46.098450    0.000000    0.000000    0.000000    -26.290985    -19.461132    -1.810300    2.560720    34.896469    -3.962022    20.128962    -12.538661    0.696370    0.000000    0.000000    0.000000    
